<svg width="16" height="16" viewBox="0 0 16 16" fill="none" xmlns="http://www.w3.org/2000/svg">
<path fill-rule="evenodd" clip-rule="evenodd" d="M5.99992 12.0002C6.36811 12.0002 6.66659 12.2986 6.66659 12.6668C6.66659 13.035 6.36811 13.3335 5.99992 13.3335H3.33325C2.96506 13.3335 2.66659 13.035 2.66659 12.6668V10.0002C2.66659 9.63197 2.96506 9.3335 3.33325 9.3335C3.70144 9.3335 3.99992 9.63197 3.99992 10.0002V11.0574L6.19518 8.86209C6.45553 8.60174 6.87764 8.60174 7.13799 8.86209C7.39834 9.12244 7.39834 9.54455 7.13799 9.8049L4.94273 12.0002H5.99992ZM9.80466 7.13823C9.54431 7.39858 9.1222 7.39858 8.86185 7.13823C8.6015 6.87788 8.6015 6.45577 8.86185 6.19543L11.0571 4.00016H9.99992C9.63173 4.00016 9.33325 3.70169 9.33325 3.3335C9.33325 2.96531 9.63173 2.66683 9.99992 2.66683H12.6666C13.0348 2.66683 13.3333 2.96531 13.3333 3.3335V6.00016C13.3333 6.36835 13.0348 6.66683 12.6666 6.66683C12.2984 6.66683 11.9999 6.36835 11.9999 6.00016V4.94297L9.80466 7.13823Z" fill="#4F5762"/>
</svg>
