<svg width="16" height="16" viewBox="0 0 16 16" fill="none" xmlns="http://www.w3.org/2000/svg">
<path d="M11.2029 1.85909C11.8274 1.75371 12.4678 1.97278 12.9184 2.42336L13.5762 3.08121C14.0268 3.53179 14.2458 4.17219 14.1405 4.79668L14.0589 5.27999C13.9127 6.14655 13.5424 6.94953 12.9812 7.6096L12.2834 8.43027C11.8166 8.9794 11.003 8.94374 10.524 8.46474L7.53482 5.47563C7.05582 4.99659 7.02015 4.18302 7.56929 3.71611L8.38995 3.01839C9.05002 2.45717 9.85302 2.08686 10.7196 1.94064L11.2029 1.85909Z" fill="black" fill-opacity="0.88"/>
<path fill-rule="evenodd" clip-rule="evenodd" d="M14.8049 1.19526C15.0652 1.45561 15.0652 1.87772 14.8049 2.13807L13.4715 3.47141C13.2112 3.73175 12.7891 3.73175 12.5287 3.47141C12.2684 3.21105 12.2684 2.78895 12.5287 2.52859L13.8621 1.19526C14.1224 0.934913 14.5445 0.934913 14.8049 1.19526Z" fill="#141B34"/>
<path fill-rule="evenodd" clip-rule="evenodd" d="M3.47141 12.5283C3.73175 12.7886 3.73175 13.2107 3.47141 13.4711L2.13807 14.8044C1.87772 15.0647 1.45561 15.0647 1.19526 14.8044C0.934913 14.5441 0.934913 14.1219 1.19526 13.8616L2.52859 12.5283C2.78895 12.2679 3.21105 12.2679 3.47141 12.5283Z" fill="#141B34"/>
<path d="M3.7166 7.56978C4.18351 7.02064 4.99708 7.05631 5.47612 7.53531L8.46522 10.5244C8.94422 11.0034 8.97989 11.817 8.43076 12.2839L7.61009 12.9816C6.95002 13.5428 6.14704 13.9132 5.28048 14.0594L4.79717 14.141C4.17268 14.2463 3.53228 14.0272 3.0817 13.5767L2.42385 12.9188C1.97327 12.4682 1.7542 11.8278 1.85958 11.2034L1.94113 10.72C2.08735 9.85351 2.45766 9.05051 3.01888 8.39044L3.7166 7.56978Z" fill="#141B34"/>
<path fill-rule="evenodd" clip-rule="evenodd" d="M7.4714 6.52827C7.73173 6.78861 7.73173 7.21074 7.4714 7.47107L6.13807 8.80441C5.87772 9.06474 5.45561 9.06474 5.19526 8.80441C4.93491 8.54407 4.93491 8.12194 5.19526 7.86161L6.52859 6.52827C6.78893 6.26792 7.21107 6.26792 7.4714 6.52827ZM8.5286 8.52828C8.78893 8.26794 9.21107 8.26794 9.4714 8.52828C9.73173 8.78861 9.73173 9.21074 9.4714 9.47107L8.13807 10.8044C7.87773 11.0647 7.4556 11.0647 7.19527 10.8044C6.93493 10.5441 6.93493 10.1219 7.19527 9.86161L8.5286 8.52828Z" fill="#141B34"/>
</svg>
