<svg width="16" height="16" viewBox="0 0 16 16" fill="none" xmlns="http://www.w3.org/2000/svg">
<path d="M6.61092 10.6013C6.9083 11.0733 7.28164 11.4145 7.73557 11.7119C8.5717 12.2596 8.8351 13.5078 7.9565 14.2319L6.9623 15.0513C6.7803 15.2013 6.51833 15.2037 6.33359 15.0573C5.17358 14.1372 4.58466 13.3946 4.33488 12.3846C4.21526 11.9009 4.17884 11.3779 4.16932 10.7849C4.16494 10.5127 4.16632 10.2127 4.16904 9.88652L4.7291 9.77532C4.81084 9.75699 4.86944 9.76472 4.93849 9.79786L6.61092 10.6013Z" fill="black" fill-opacity="0.88"/>
<path fill-rule="evenodd" clip-rule="evenodd" d="M12.2047 0.923735C11.7969 0.786902 11.4178 0.816282 11.0225 0.935749C10.6597 1.0454 10.2483 1.24292 9.7674 1.47381L5.5 3.52228V9.14374L9.7674 11.1922C10.2483 11.4231 10.6597 11.6206 11.0225 11.7303C11.4178 11.8497 11.7969 11.8791 12.2047 11.7423C12.9759 11.4835 13.2592 10.8871 13.6049 10.1595L13.6489 10.0668C14.2163 8.87648 14.5 7.60474 14.5 6.33302C14.5 5.06128 14.2163 3.78954 13.6489 2.5992L13.6049 2.50652C13.2592 1.77892 12.9759 1.18254 12.2047 0.923735ZM4.5 8.97348V3.69251C4.30889 3.64974 4.14725 3.61446 4.0316 3.60126C3.26797 3.51406 2.61821 3.77598 2.1677 4.253C1.72675 4.71992 1.5 5.36598 1.5 6.0292V6.63682C1.5 7.30001 1.72675 7.94608 2.1677 8.41301C2.61821 8.89001 3.26797 9.15194 4.0316 9.06474C4.14725 9.05154 4.30889 9.01628 4.5 8.97348Z" fill="black" fill-opacity="0.88"/>
</svg>
