<svg width="16" height="16" viewBox="0 0 16 16" fill="none" xmlns="http://www.w3.org/2000/svg">
<path fill-rule="evenodd" clip-rule="evenodd" d="M6.49983 14.9643C6.68273 15.0959 6.87873 15.1451 7.06513 15.1663H8.93486C9.12126 15.1451 9.31727 15.0959 9.5002 14.9643C9.683 14.8327 9.79153 14.6627 9.87053 14.4931C9.94147 14.3408 10.299 13.2738 10.299 13.2738C10.299 13.2738 10.4736 12.9782 10.6171 12.8841C10.8987 12.6993 11.1829 12.6593 11.3681 12.6993C11.3681 12.6993 12.6224 13.0525 12.7995 13.0805C12.9965 13.1117 13.2121 13.1157 13.4349 13.0253C13.6577 12.9351 13.8093 12.7823 13.9287 12.623L14.8877 10.9681C14.9628 10.7953 15.0181 10.6002 14.9945 10.3752C14.9707 10.1502 14.8759 9.97087 14.7664 9.81741C14.6681 9.67961 13.8395 8.75721 13.6961 8.59834C13.6961 8.59834 13.5227 8.33254 13.5227 7.99954C13.5227 7.60974 13.6961 7.40094 13.6961 7.40094C13.6961 7.40094 14.6681 6.31966 14.7664 6.18187C14.8759 6.02841 14.9707 5.84907 14.9945 5.62407C15.0181 5.3991 14.9628 5.20402 14.8877 5.03123C14.8203 4.87605 13.9287 3.37625 13.9287 3.37625C13.8093 3.21697 13.6577 3.06424 13.4349 2.97393C13.2121 2.88358 12.9965 2.88756 12.7995 2.91874C12.6224 2.94677 11.588 3.23766 11.3681 3.29991C11.3681 3.29991 11.0151 3.37625 10.6171 3.1152C10.4736 3.02113 10.3625 2.88509 10.2989 2.72549C10.2989 2.72549 9.94147 1.65853 9.87053 1.50621C9.79153 1.33663 9.683 1.16665 9.5002 1.03506C9.31727 0.903408 9.12126 0.854261 8.93486 0.833008H7.06513C6.87873 0.854261 6.68273 0.903408 6.49983 1.03506C6.31701 1.16665 6.20849 1.33663 6.12949 1.50621C6.05853 1.65853 5.70105 2.72549 5.70105 2.72549C5.63751 2.88509 5.52637 3.02113 5.38292 3.1152C4.98484 3.37625 4.63196 3.29991 4.63196 3.29991C4.41197 3.23766 3.3776 2.94677 3.20046 2.91874C3.00345 2.88756 2.78792 2.88358 2.56506 2.97393C2.34228 3.06424 2.19068 3.21697 2.07132 3.37625C2.07132 3.37625 1.17971 4.87605 1.11228 5.03123C1.03722 5.20402 0.981838 5.3991 1.00555 5.62407C1.02926 5.84907 1.12412 6.02841 1.23362 6.18187C1.33194 6.31966 2.3039 7.40094 2.3039 7.40094C2.3039 7.40094 2.47727 7.60974 2.47727 7.99954C2.47727 8.33254 2.30392 8.59834 2.30392 8.59834C2.16055 8.75721 1.33194 9.67961 1.23362 9.81741C1.12412 9.97087 1.02926 10.1502 1.00555 10.3752C0.981838 10.6002 1.03722 10.7953 1.11229 10.9681L2.07131 12.623C2.19067 12.7823 2.34227 12.9351 2.56507 13.0253C2.78794 13.1157 3.00346 13.1117 3.20047 13.0805C3.37762 13.0525 4.63192 12.6993 4.63192 12.6993C4.81708 12.6593 5.10128 12.6993 5.38295 12.8841C5.52638 12.9782 5.70102 13.2738 5.70102 13.2738C5.70102 13.2738 6.05853 14.3408 6.12949 14.4931C6.20849 14.6627 6.31701 14.8327 6.49983 14.9643ZM8.013 10.333C9.30167 10.333 10.3463 9.28834 10.3463 7.99967C10.3463 6.71101 9.30167 5.66634 8.013 5.66634C6.72433 5.66634 5.67969 6.71101 5.67969 7.99967C5.67969 9.28834 6.72433 10.333 8.013 10.333Z" fill="black" fill-opacity="0.88"/>
</svg>
