<svg width="16" height="16" viewBox="0 0 16 16" fill="none" xmlns="http://www.w3.org/2000/svg">
<path fill-rule="evenodd" clip-rule="evenodd" d="M9.96043 0.922895C9.2917 0.832988 8.43903 0.832995 7.3707 0.833008H5.963C4.8946 0.832995 4.04196 0.832988 3.37324 0.922895C2.6824 1.01578 2.11346 1.21278 1.66336 1.66288C1.21327 2.11297 1.01626 2.68191 0.923383 3.37275C0.833477 4.04148 0.833483 4.89412 0.833496 5.96251V7.37014C0.833483 8.43848 0.833477 9.29121 0.923383 9.95994C1.01626 10.6508 1.21327 11.2197 1.66336 11.6698C2.11346 12.1199 2.6824 12.3169 3.37324 12.4098C3.52886 12.4307 3.69444 12.4468 3.87038 12.4591C3.95179 13.1965 4.14262 13.8306 4.64037 14.3284C5.10623 14.7943 5.68963 14.9898 6.3611 15.0801C7.00316 15.1664 7.81616 15.1664 8.81003 15.1663H10.1592C11.1531 15.1664 11.9661 15.1664 12.6082 15.0801C13.2796 14.9898 13.863 14.7943 14.3289 14.3284C14.7948 13.8625 14.9903 13.2791 15.0806 12.6077C15.1669 11.9656 15.1669 11.1526 15.1668 10.1587V8.80954C15.1669 7.81567 15.1669 7.00267 15.0806 6.36061C14.9903 5.68915 14.7948 5.10574 14.3289 4.63988C13.8311 4.14213 13.197 3.9513 12.4596 3.86989C12.4473 3.69395 12.4312 3.52837 12.4103 3.37275C12.3174 2.68191 12.1204 2.11297 11.6703 1.66288C11.2202 1.21278 10.6513 1.01578 9.96043 0.922895ZM12.4989 5.21956C12.5002 5.45471 12.5002 5.70221 12.5002 5.96251V7.37014C12.5002 8.43854 12.5002 9.29121 12.4103 9.95994C12.3174 10.6508 12.1204 11.2197 11.6703 11.6698C11.2202 12.1199 10.6513 12.3169 9.96043 12.4098C9.2917 12.4997 8.43903 12.4997 7.37063 12.4997H5.963C5.7027 12.4997 5.4552 12.4997 5.22005 12.4984C5.29182 12.9748 5.41303 13.2154 5.58317 13.3856C5.76001 13.5624 6.01515 13.6882 6.53877 13.7586C7.08156 13.8316 7.80443 13.833 8.85769 13.833H10.1116C11.1648 13.833 11.8877 13.8316 12.4305 13.7586C12.9541 13.6882 13.2092 13.5624 13.3861 13.3856C13.5629 13.2087 13.6887 12.9536 13.7591 12.43C13.8321 11.8872 13.8335 11.1643 13.8335 10.1111V8.8572C13.8335 7.80394 13.8321 7.08107 13.7591 6.53828C13.6887 6.01467 13.5629 5.75952 13.3861 5.58268C13.2159 5.41254 12.9753 5.29134 12.4989 5.21956ZM7.43605 3.33301C7.71927 3.33301 7.94888 3.54621 7.94888 3.8092C7.94888 4.09283 8.11355 4.38559 8.41872 4.62222C8.72427 4.85919 9.12294 4.99967 9.48733 4.99967C9.77055 4.99967 10.0002 5.21287 10.0002 5.47586C10.0002 5.73885 9.77055 5.95203 9.48733 5.95203C8.94027 5.95203 8.39316 5.77491 7.94888 5.48642V7.8568C7.94888 9.04029 6.91572 9.99967 5.64116 9.99967C4.36669 9.99967 3.3335 9.04029 3.3335 7.8568C3.3335 6.67337 4.36669 5.71398 5.64116 5.71398C5.75261 5.71398 5.8625 5.72132 5.97022 5.73562C6.25061 5.77285 6.44533 6.01414 6.40527 6.27444C6.36516 6.5348 6.10533 6.71567 5.825 6.67844C5.76522 6.6705 5.70389 6.66634 5.64116 6.66634C4.93313 6.66634 4.35914 7.19932 4.35914 7.8568C4.35914 8.51429 4.93313 9.04732 5.64116 9.04732C6.34922 9.04732 6.92322 8.51429 6.92322 7.8568V3.8092C6.92322 3.54621 7.15283 3.33301 7.43605 3.33301Z" fill="black"/>
</svg>
