<svg width="16" height="16" viewBox="0 0 16 16" fill="none" xmlns="http://www.w3.org/2000/svg">
<path d="M4.66683 1.33366C4.66683 0.965472 4.36835 0.666992 4.00016 0.666992C3.63198 0.666992 3.3335 0.965472 3.3335 1.33366V1.63289C3.58704 1.55247 3.85719 1.49505 4.14372 1.4534C4.30902 1.42937 4.48331 1.41017 4.66683 1.39481V1.33366Z" fill="black" fill-opacity="0.88"/>
<path d="M12.6668 1.63289C12.4133 1.55247 12.1432 1.49505 11.8566 1.4534C11.6913 1.42937 11.517 1.41017 11.3335 1.39481V1.33366C11.3335 0.965472 11.632 0.666992 12.0002 0.666992C12.3684 0.666992 12.6668 0.965472 12.6668 1.33366V1.63289Z" fill="#141B34"/>
<path fill-rule="evenodd" clip-rule="evenodd" d="M8.68587 1.33301H7.31413C6.01529 1.33299 4.96761 1.33297 4.14355 1.45275C3.28357 1.57774 2.5712 1.84488 2.01201 2.44941C1.45966 3.04655 1.22186 3.79482 1.10944 4.69878C0.99998 5.57897 0.999987 6.70241 1 8.11561V8.55041C0.999987 9.96361 0.99998 11.0871 1.10944 11.9672C1.22186 12.8712 1.45966 13.6195 2.01201 14.2166C2.5712 14.8211 3.28357 15.0883 4.14355 15.2133C4.96761 15.3331 6.01529 15.333 7.31413 15.333H8.68587C9.98473 15.333 11.0324 15.3331 11.8565 15.2133C12.7165 15.0883 13.4288 14.8211 13.988 14.2166C14.5403 13.6195 14.7781 12.8712 14.8905 11.9672C15 11.0871 15 9.96361 15 8.55041V8.11561C15 6.70241 15 5.57898 14.8905 4.69878C14.7781 3.79482 14.5403 3.04655 13.988 2.44941C13.4288 1.84488 12.7165 1.57774 11.8565 1.45275C11.0324 1.33297 9.98473 1.33299 8.68587 1.33301ZM2.99855 5.99968C2.69281 5.99968 2.53993 5.99968 2.44257 6.09579C2.34521 6.1919 2.34325 6.34282 2.33933 6.64468C2.33351 7.09348 2.33333 7.59581 2.33333 8.16181V8.50421C2.33333 9.97408 2.33455 11.0144 2.43258 11.8027C2.52885 12.5767 2.70842 13.0059 2.99081 13.3112C3.26637 13.6091 3.64313 13.7932 4.33533 13.8938C5.05239 13.998 6.00283 13.9997 7.36667 13.9997H8.63333C9.99713 13.9997 10.9476 13.998 11.6647 13.8938C12.3569 13.7932 12.7336 13.6091 13.0092 13.3112C13.2916 13.0059 13.4711 12.5767 13.5674 11.8027C13.6655 11.0144 13.6667 9.97408 13.6667 8.50421V8.16181C13.6667 7.59581 13.6665 7.09348 13.6607 6.64468C13.6567 6.34282 13.6548 6.1919 13.5575 6.09579C13.4601 5.99968 13.3072 5.99968 13.0015 5.99968H2.99855Z" fill="#141B34"/>
<path fill-rule="evenodd" clip-rule="evenodd" d="M4.5 8.66634C4.5 8.20607 4.87309 7.83301 5.33333 7.83301H5.33931C5.79955 7.83301 6.17265 8.20607 6.17265 8.66634C6.17265 9.12661 5.79955 9.49967 5.33931 9.49967H5.33333C4.87309 9.49967 4.5 9.12661 4.5 8.66634ZM7.16367 8.66634C7.16367 8.20607 7.5368 7.83301 7.997 7.83301H8.003C8.4632 7.83301 8.83633 8.20607 8.83633 8.66634C8.83633 9.12661 8.4632 9.49967 8.003 9.49967H7.997C7.5368 9.49967 7.16367 9.12661 7.16367 8.66634ZM9.82733 8.66634C9.82733 8.20607 10.2005 7.83301 10.6607 7.83301H10.6667C11.1269 7.83301 11.5 8.20607 11.5 8.66634C11.5 9.12661 11.1269 9.49967 10.6667 9.49967H10.6607C10.2005 9.49967 9.82733 9.12661 9.82733 8.66634ZM4.5 11.333C4.5 10.8727 4.87309 10.4997 5.33333 10.4997H5.33931C5.79955 10.4997 6.17265 10.8727 6.17265 11.333C6.17265 11.7933 5.79955 12.1663 5.33931 12.1663H5.33333C4.87309 12.1663 4.5 11.7933 4.5 11.333ZM7.16367 11.333C7.16367 10.8727 7.5368 10.4997 7.997 10.4997H8.003C8.4632 10.4997 8.83633 10.8727 8.83633 11.333C8.83633 11.7933 8.4632 12.1663 8.003 12.1663H7.997C7.5368 12.1663 7.16367 11.7933 7.16367 11.333Z" fill="#141B34"/>
</svg>
