<svg width="16" height="16" viewBox="0 0 16 16" fill="none" xmlns="http://www.w3.org/2000/svg">
<path d="M12.0211 8.83301C12.47 8.83301 12.8372 8.83301 13.1356 8.85741C13.4444 8.88261 13.7233 8.93641 13.9838 9.06914C14.3915 9.27687 14.723 9.60834 14.9307 10.016C15.0634 10.2765 15.1172 10.5555 15.1424 10.8643C15.1668 11.1627 15.1668 11.5298 15.1668 11.9787V12.0206C15.1668 12.4695 15.1668 12.8367 15.1424 13.1351C15.1172 13.4439 15.0634 13.7228 14.9307 13.9833C14.723 14.391 14.3915 14.7225 13.9838 14.9302C13.7233 15.0629 13.4444 15.1167 13.1356 15.1419C12.8372 15.1663 12.47 15.1663 12.0212 15.1663H11.9792C11.5304 15.1663 11.1632 15.1663 10.8648 15.1419C10.556 15.1167 10.277 15.0629 10.0165 14.9302C9.60883 14.7225 9.27736 14.391 9.06963 13.9833C8.9369 13.7228 8.8831 13.4439 8.8579 13.1351C8.8335 12.8367 8.8335 12.4695 8.8335 12.0206V11.9787C8.8335 11.5298 8.8335 11.1627 8.8579 10.8643C8.8831 10.5555 8.9369 10.2765 9.06963 10.016C9.27736 9.60834 9.60883 9.27687 10.0165 9.06914C10.277 8.93641 10.556 8.88261 10.8648 8.85741C11.1632 8.83301 11.5303 8.83301 11.9792 8.83301H12.0211Z" fill="#141B34"/>
<path d="M4.02112 8.83301C4.47003 8.83301 4.83717 8.83301 5.13554 8.85741C5.44438 8.88261 5.72332 8.93641 5.98381 9.06914C6.3915 9.27687 6.72296 9.60834 6.9307 10.016C7.06343 10.2765 7.11723 10.5555 7.14243 10.8643C7.16683 11.1627 7.16683 11.5298 7.16683 11.9787V12.0206C7.16683 12.4695 7.16683 12.8367 7.14243 13.1351C7.11723 13.4439 7.06343 13.7228 6.9307 13.9833C6.72296 14.391 6.3915 14.7225 5.98381 14.9302C5.72332 15.0629 5.44438 15.1167 5.13554 15.1419C4.83718 15.1663 4.47004 15.1663 4.02114 15.1663H3.9792C3.5303 15.1663 3.16315 15.1663 2.86478 15.1419C2.55594 15.1167 2.27701 15.0629 2.01652 14.9302C1.60883 14.7225 1.27738 14.391 1.06965 13.9833C0.936923 13.7228 0.883096 13.4439 0.857863 13.1351C0.833483 12.8367 0.83349 12.4695 0.833496 12.0206V11.9787C0.83349 11.5298 0.833483 11.1627 0.857863 10.8643C0.883096 10.5555 0.936923 10.2765 1.06965 10.016C1.27738 9.60834 1.60883 9.27687 2.01652 9.06914C2.27701 8.93641 2.55594 8.88261 2.86478 8.85741C3.16316 8.83301 3.5303 8.83301 3.97921 8.83301H4.02112Z" fill="#141B34"/>
<path d="M4.02112 0.833008C4.47003 0.833001 4.83717 0.832995 5.13554 0.857375C5.44438 0.882608 5.72332 0.936435 5.98381 1.06916C6.3915 1.27689 6.72296 1.60834 6.9307 2.01603C7.06343 2.27652 7.11723 2.55545 7.14243 2.86429C7.16683 3.16266 7.16683 3.52979 7.16683 3.97869V4.02063C7.16683 4.46953 7.16683 4.83669 7.14243 5.13506C7.11723 5.44389 7.06343 5.72283 6.9307 5.98332C6.72296 6.39101 6.3915 6.72247 5.98381 6.93021C5.72332 7.06294 5.44438 7.11674 5.13554 7.14194C4.83718 7.16634 4.47004 7.16634 4.02114 7.16634H3.9792C3.5303 7.16634 3.16315 7.16634 2.86478 7.14194C2.55594 7.11674 2.27701 7.06294 2.01652 6.93021C1.60883 6.72247 1.27738 6.39101 1.06965 5.98332C0.936923 5.72283 0.883096 5.44389 0.857863 5.13506C0.833483 4.83668 0.83349 4.46954 0.833496 4.02063V3.97873C0.83349 3.52981 0.833483 3.16267 0.857863 2.86429C0.883096 2.55545 0.936923 2.27652 1.06965 2.01603C1.27738 1.60834 1.60883 1.27689 2.01652 1.06916C2.27701 0.936435 2.55594 0.882608 2.86478 0.857375C3.16316 0.832995 3.5303 0.833001 3.97921 0.833008H4.02112Z" fill="#141B34"/>
<path fill-rule="evenodd" clip-rule="evenodd" d="M12 1C12.3682 1 12.6667 1.29848 12.6667 1.66667V3.33333H14.3333C14.7015 3.33333 15 3.63181 15 4C15 4.36819 14.7015 4.66667 14.3333 4.66667H12.6667V6.33333C12.6667 6.70153 12.3682 7 12 7C11.6318 7 11.3333 6.70153 11.3333 6.33333V4.66667H9.66667C9.29847 4.66667 9 4.36819 9 4C9 3.63181 9.29847 3.33333 9.66667 3.33333H11.3333V1.66667C11.3333 1.29848 11.6318 1 12 1Z" fill="#141B34"/>
</svg>
