<svg width="16" height="16" viewBox="0 0 16 16" fill="none" xmlns="http://www.w3.org/2000/svg">
<path fill-rule="evenodd" clip-rule="evenodd" d="M8.03797 1.16699C9.49844 1.16699 10.6456 1.16698 11.5412 1.28739C12.4589 1.41078 13.1871 1.66881 13.7592 2.24093C14.3314 2.81307 14.5894 3.54124 14.7128 4.45901C14.8332 5.35462 14.8332 6.50173 14.8332 7.96219V8.03846C14.8332 9.49893 14.8332 10.6461 14.7128 11.5417C14.5894 12.4594 14.3314 13.1876 13.7592 13.7597C13.1871 14.3319 12.4589 14.5899 11.5412 14.7133C10.6456 14.8337 9.49844 14.8337 8.03797 14.8337H7.9617C6.50124 14.8337 5.35413 14.8337 4.45852 14.7133C3.54075 14.5899 2.81258 14.3319 2.24044 13.7597C1.66832 13.1876 1.41029 12.4594 1.2869 11.5417C1.16649 10.6461 1.1665 9.49893 1.1665 8.03846V7.96219C1.1665 6.50174 1.16649 5.35462 1.2869 4.45901C1.41029 3.54124 1.66832 2.81307 2.24044 2.24093C2.81258 1.66881 3.54075 1.41078 4.45852 1.28739C5.35413 1.16698 6.50125 1.16699 7.9617 1.16699H8.03797ZM4.6665 10.167C4.94264 10.167 5.1665 10.3909 5.1665 10.667V12.0003C5.1665 12.2765 4.94264 12.5003 4.6665 12.5003C4.39036 12.5003 4.1665 12.2765 4.1665 12.0003V10.667C4.1665 10.3909 4.39036 10.167 4.6665 10.167ZM8.49984 10.0003C8.49984 9.72419 8.27597 9.50033 7.99984 9.50033C7.7237 9.50033 7.49984 9.72419 7.49984 10.0003V12.0003C7.49984 12.2765 7.7237 12.5003 7.99984 12.5003C8.27597 12.5003 8.49984 12.2765 8.49984 12.0003V10.0003ZM11.3332 8.16699C11.6093 8.16699 11.8332 8.39086 11.8332 8.66699V12.0003C11.8332 12.2765 11.6093 12.5003 11.3332 12.5003C11.057 12.5003 10.8332 12.2765 10.8332 12.0003V8.66699C10.8332 8.39086 11.057 8.16699 11.3332 8.16699ZM10.5724 3.50185C10.7266 3.49481 10.9127 3.50896 11.0963 3.61334C11.2868 3.72157 11.3924 3.87973 11.4592 4.02769C11.5141 4.14928 11.5565 4.29743 11.5952 4.43271L11.6018 4.45564L11.8138 5.19596C11.8899 5.46142 11.7364 5.73827 11.4709 5.81433C11.2054 5.89038 10.9286 5.73683 10.8525 5.47137L10.7547 5.12998C9.26557 7.27093 6.88117 8.16699 3.99984 8.16699C3.7237 8.16699 3.49984 7.94313 3.49984 7.66699C3.49984 7.39086 3.7237 7.16699 3.99984 7.16699C6.63492 7.16699 8.6421 6.37219 9.8971 4.61058L9.41457 4.69018C9.1421 4.73513 8.88477 4.55069 8.83984 4.27823C8.7949 4.00576 8.9793 3.74846 9.25177 3.70351L10.0969 3.56411L10.119 3.56047C10.2773 3.53431 10.4362 3.50806 10.5724 3.50185Z" fill="black" fill-opacity="0.88"/>
</svg>
