<svg width="16" height="16" viewBox="0 0 16 16" fill="none" xmlns="http://www.w3.org/2000/svg">
<path d="M10.564 10.167C10.6508 10.167 10.7364 10.167 10.8086 10.1705C10.8847 10.1743 10.987 10.1833 11.0936 10.2179C11.4254 10.3254 11.649 10.5857 11.666 10.8811C11.6714 10.976 11.6494 11.0596 11.6296 11.1211C11.6109 11.1793 11.5838 11.2471 11.5564 11.3161C11.4603 11.5575 11.3645 11.7985 11.2437 11.9575C10.9923 12.2887 10.5978 12.5267 10.1417 12.6217C9.92256 12.6673 9.68456 12.6671 9.3805 12.667L9.32556 12.6669H6.67476L6.61983 12.667C6.31573 12.6671 6.07774 12.6673 5.85859 12.6217C5.40248 12.5267 5.00803 12.2887 4.75661 11.9575C4.63584 11.7985 4.56089 11.61 4.46483 11.3685C4.43734 11.2995 4.38942 11.1793 4.37068 11.1211C4.3509 11.0596 4.3289 10.976 4.33434 10.8811C4.35127 10.5857 4.57484 10.3254 4.90665 10.2179C5.01326 10.1833 5.11561 10.1743 5.19177 10.1705C5.2639 10.167 5.34949 10.167 5.43631 10.167H10.564Z" fill="black" fill-opacity="0.88"/>
<path fill-rule="evenodd" clip-rule="evenodd" d="M7.99984 2.12467C5.48786 2.12467 3.4628 4.13145 3.4628 6.59311C3.4628 7.43521 3.69869 8.22134 4.10903 8.89301C4.29516 9.19767 4.19818 9.59501 3.89241 9.78047C3.58664 9.96594 3.18788 9.86934 3.00176 9.56467C2.47162 8.69687 2.1665 7.67934 2.1665 6.59311C2.1665 3.4057 4.78442 0.833008 7.99984 0.833008C11.2152 0.833008 13.8332 3.4057 13.8332 6.59311C13.8332 7.67934 13.528 8.69687 12.9979 9.56467C12.8118 9.86934 12.413 9.96594 12.1072 9.78047C11.8015 9.59501 11.7045 9.19767 11.8906 8.89301C12.301 8.22134 12.5369 7.43521 12.5369 6.59311C12.5369 4.13145 10.5118 2.12467 7.99984 2.12467ZM7.99984 6.64551C8.35777 6.64551 8.64797 6.93467 8.64797 7.29134V10.5205C8.64797 10.8772 8.35777 11.1663 7.99984 11.1663C7.6419 11.1663 7.3517 10.8772 7.3517 10.5205V7.29134C7.3517 6.93467 7.6419 6.64551 7.99984 6.64551Z" fill="black" fill-opacity="0.88"/>
<path d="M5.61165 13.2689C5.69126 13.6686 5.75332 13.9802 5.89952 14.238C6.12408 14.634 6.48792 14.9323 6.92023 15.0748C7.20176 15.1676 7.59363 15.1673 8.00123 15.167C8.40876 15.1673 8.8007 15.1676 9.08216 15.0748C9.5145 14.9323 9.87836 14.634 10.1029 14.238C10.2491 13.9802 10.3112 13.6686 10.3908 13.2689L10.4111 13.167H5.59131L5.61165 13.2689Z" fill="#141B34"/>
</svg>
