<svg width="16" height="16" viewBox="0 0 16 16" fill="none" xmlns="http://www.w3.org/2000/svg">
<path fill-rule="evenodd" clip-rule="evenodd" d="M14.0001 13.3335C13.6319 13.3335 13.3334 13.035 13.3334 12.6668L13.3334 3.3335C13.3334 2.96531 13.6319 2.66683 14.0001 2.66683C14.3683 2.66683 14.6667 2.96531 14.6667 3.3335L14.6667 12.6668C14.6667 13.035 14.3683 13.3335 14.0001 13.3335ZM8.86201 10.4716C8.60166 10.2112 8.60166 9.78911 8.86201 9.52876L9.72394 8.66683L2.00008 8.66683C1.63189 8.66683 1.33341 8.36835 1.33341 8.00016C1.33341 7.63197 1.63189 7.3335 2.00008 7.3335L9.72394 7.3335L8.86201 6.47157C8.60166 6.21122 8.60166 5.78911 8.86201 5.52876C9.12236 5.26841 9.54447 5.26841 9.80482 5.52876L11.8048 7.52876C12.0652 7.78911 12.0652 8.21122 11.8048 8.47157L9.80482 10.4716C9.54447 10.7319 9.12236 10.7319 8.86201 10.4716Z" fill="#4F5762"/>
</svg>
