<svg width="16" height="16" viewBox="0 0 16 16" fill="none" xmlns="http://www.w3.org/2000/svg">
<path fill-rule="evenodd" clip-rule="evenodd" d="M1.99992 2.6665C2.36811 2.6665 2.66659 2.96498 2.66659 3.33317V12.6665C2.66659 13.0347 2.36811 13.3332 1.99992 13.3332C1.63173 13.3332 1.33325 13.0347 1.33325 12.6665V3.33317C1.33325 2.96498 1.63173 2.6665 1.99992 2.6665ZM7.13799 5.52843C7.39834 5.78878 7.39834 6.21089 7.13799 6.47124L6.27606 7.33317H13.9999C14.3681 7.33317 14.6666 7.63165 14.6666 7.99984C14.6666 8.36803 14.3681 8.6665 13.9999 8.6665H6.27606L7.13799 9.52843C7.39834 9.78878 7.39834 10.2109 7.13799 10.4712C6.87764 10.7316 6.45553 10.7316 6.19518 10.4712L4.19518 8.47124C3.93483 8.21089 3.93483 7.78878 4.19518 7.52843L6.19518 5.52843C6.45553 5.26808 6.87764 5.26808 7.13799 5.52843Z" fill="#4F5762"/>
</svg>
