<svg width="16" height="16" viewBox="0 0 16 16" fill="none" xmlns="http://www.w3.org/2000/svg">
<path fill-rule="evenodd" clip-rule="evenodd" d="M14 13.3335C13.6318 13.3335 13.3333 13.035 13.3333 12.6668L13.3333 3.3335C13.3333 2.96531 13.6318 2.66683 14 2.66683C14.3681 2.66683 14.6666 2.96531 14.6666 3.3335L14.6666 12.6668C14.6666 13.035 14.3681 13.3335 14 13.3335ZM8.86189 10.4716C8.60154 10.2112 8.60154 9.78911 8.86189 9.52876L9.72382 8.66683L1.99996 8.66683C1.63177 8.66683 1.33329 8.36835 1.33329 8.00016C1.33329 7.63197 1.63177 7.3335 1.99996 7.3335L9.72382 7.3335L8.86189 6.47157C8.60154 6.21122 8.60154 5.78911 8.86189 5.52876C9.12224 5.26841 9.54435 5.26841 9.8047 5.52876L11.8047 7.52876C12.065 7.78911 12.065 8.21122 11.8047 8.47157L9.8047 10.4716C9.54435 10.7319 9.12224 10.7319 8.86189 10.4716Z" fill="#4F5762"/>
</svg>
