<svg width="16" height="16" viewBox="0 0 16 16" fill="none" xmlns="http://www.w3.org/2000/svg">
<path fill-rule="evenodd" clip-rule="evenodd" d="M13.9999 2.6665C14.3681 2.6665 14.6666 2.96498 14.6666 3.33317V12.6665C14.6666 13.0347 14.3681 13.3332 13.9999 13.3332C13.6317 13.3332 13.3333 13.0347 13.3333 12.6665V3.33317C13.3333 2.96498 13.6317 2.6665 13.9999 2.6665ZM8.86185 5.52843C9.1222 5.26808 9.54431 5.26808 9.80466 5.52843L11.8047 7.52843C12.065 7.78878 12.065 8.21089 11.8047 8.47124L9.80466 10.4712C9.54431 10.7316 9.1222 10.7316 8.86185 10.4712C8.6015 10.2109 8.6015 9.78878 8.86185 9.52843L9.72378 8.6665H1.99992C1.63173 8.6665 1.33325 8.36803 1.33325 7.99984C1.33325 7.63165 1.63173 7.33317 1.99992 7.33317H9.72378L8.86185 6.47124C8.6015 6.21089 8.6015 5.78878 8.86185 5.52843Z" fill="#4F5762"/>
</svg>
