<svg width="16" height="16" viewBox="0 0 16 16" fill="none" xmlns="http://www.w3.org/2000/svg">
<path d="M2.66675 8.2085C2.66675 8.3234 2.68938 8.43718 2.73335 8.54334C2.77733 8.6495 2.84178 8.74596 2.92303 8.82721C3.00428 8.90847 3.10074 8.97292 3.2069 9.01689C3.31306 9.06086 3.42684 9.0835 3.54175 9.0835C3.65665 9.0835 3.77044 9.06086 3.8766 9.01689C3.98276 8.97292 4.07922 8.90847 4.16047 8.82721C4.24172 8.74596 4.30617 8.6495 4.35014 8.54334C4.39412 8.43718 4.41675 8.3234 4.41675 8.2085C4.41675 8.09359 4.39412 7.97981 4.35014 7.87365C4.30617 7.76749 4.24172 7.67103 4.16047 7.58978C4.07922 7.50853 3.98276 7.44407 3.8766 7.4001C3.77044 7.35613 3.65665 7.3335 3.54175 7.3335C3.42684 7.3335 3.31306 7.35613 3.2069 7.4001C3.10074 7.44407 3.00428 7.50853 2.92303 7.58978C2.84178 7.67103 2.77733 7.76749 2.73335 7.87365C2.68938 7.97981 2.66675 8.09359 2.66675 8.2085V8.2085ZM7.04175 8.2085C7.04175 8.44056 7.13394 8.66312 7.29803 8.82721C7.46212 8.99131 7.68468 9.0835 7.91675 9.0835C8.14881 9.0835 8.37137 8.99131 8.53547 8.82721C8.69956 8.66312 8.79175 8.44056 8.79175 8.2085C8.79175 7.97643 8.69956 7.75387 8.53547 7.58978C8.37137 7.42568 8.14881 7.3335 7.91675 7.3335C7.68468 7.3335 7.46212 7.42568 7.29803 7.58978C7.13394 7.75387 7.04175 7.97643 7.04175 8.2085V8.2085ZM11.4167 8.2085C11.4167 8.44056 11.5089 8.66312 11.673 8.82721C11.8371 8.99131 12.0597 9.0835 12.2917 9.0835C12.5238 9.0835 12.7464 8.99131 12.9105 8.82721C13.0746 8.66312 13.1667 8.44056 13.1667 8.2085C13.1667 7.97643 13.0746 7.75387 12.9105 7.58978C12.7464 7.42568 12.5238 7.3335 12.2917 7.3335C12.0597 7.3335 11.8371 7.42568 11.673 7.58978C11.5089 7.75387 11.4167 7.97643 11.4167 8.2085V8.2085Z" fill="black" fill-opacity="0.88"/>
</svg>
