<svg width="16" height="16" viewBox="0 0 16 16" fill="none" xmlns="http://www.w3.org/2000/svg">
<path fill-rule="evenodd" clip-rule="evenodd" d="M3.33325 3C3.33325 2.73478 3.43861 2.48043 3.62615 2.29289C3.81368 2.10536 4.06804 2 4.33325 2H11.6666C11.9318 2 12.1862 2.10536 12.3737 2.29289C12.5612 2.48043 12.6666 2.73478 12.6666 3V3.33333C12.6666 3.51014 12.5963 3.67971 12.4713 3.80474C12.3463 3.92976 12.1767 4 11.9999 4C11.8231 4 11.6535 3.92976 11.5285 3.80474C11.4035 3.67971 11.3333 3.51014 11.3333 3.33333H4.66659V3.69333L9.04125 7.44333C9.12153 7.51218 9.18597 7.59757 9.23015 7.69366C9.27432 7.78974 9.2972 7.89425 9.2972 8C9.2972 8.10575 9.27432 8.21026 9.23015 8.30634C9.18597 8.40243 9.12153 8.48782 9.04125 8.55667L4.66659 12.3067V12.6667H11.3333C11.3333 12.4899 11.4035 12.3203 11.5285 12.1953C11.6535 12.0702 11.8231 12 11.9999 12C12.1767 12 12.3463 12.0702 12.4713 12.1953C12.5963 12.3203 12.6666 12.4899 12.6666 12.6667V13C12.6666 13.2652 12.5612 13.5196 12.3737 13.7071C12.1862 13.8946 11.9318 14 11.6666 14H4.33325C4.06804 14 3.81368 13.8946 3.62615 13.7071C3.43861 13.5196 3.33325 13.2652 3.33325 13V12.1533C3.33326 12.0091 3.36448 11.8665 3.42478 11.7354C3.48508 11.6043 3.57303 11.4879 3.68259 11.394L7.64259 8L3.68259 4.606C3.57303 4.51212 3.48508 4.39565 3.42478 4.26458C3.36448 4.13351 3.33326 3.99094 3.33325 3.84667V3Z" fill="black"/>
</svg>
