<svg width="20" height="20" viewBox="0 0 20 20" fill="none" xmlns="http://www.w3.org/2000/svg">
<path d="M17.9101 4.12351L14.0195 4.59226C13.8906 4.60788 13.8359 4.76608 13.9277 4.85788L15.0859 6.01608L10.6719 10.4301L8.68357 8.44382C8.56053 8.32077 8.36326 8.32273 8.24217 8.44382L1.95896 14.729C1.92989 14.7583 1.91357 14.798 1.91357 14.8393C1.91357 14.8807 1.92989 14.9203 1.95896 14.9497L2.83787 15.8325C2.89842 15.893 2.99803 15.893 3.05857 15.8325L8.46287 10.4301L10.4492 12.4165C10.5722 12.5376 10.7695 12.5376 10.8906 12.4165L16.1914 7.1196L17.3496 8.2778C17.3703 8.29846 17.3965 8.31287 17.425 8.31941C17.4536 8.32594 17.4834 8.32434 17.511 8.31477C17.5387 8.30521 17.5631 8.28807 17.5816 8.26531C17.6 8.24254 17.6116 8.21507 17.6152 8.18601L18.084 4.29538C18.0976 4.19577 18.0117 4.10983 17.9101 4.12351Z" fill="black"/>
</svg>
