<svg width="16" height="17" viewBox="0 0 16 17" fill="none" xmlns="http://www.w3.org/2000/svg">
<path fill-rule="evenodd" clip-rule="evenodd" d="M4.66665 5.16699C2.8257 5.16699 1.33331 6.65938 1.33331 8.50033C1.33331 10.3413 2.8257 11.8337 4.66665 11.8337H11.3333C13.1743 11.8337 14.6666 10.3413 14.6666 8.50033C14.6666 6.65938 13.1743 5.16699 11.3333 5.16699H4.66665ZM2.66665 8.50033C2.66665 7.39576 3.56208 6.50033 4.66665 6.50033H11.3333C12.4379 6.50033 13.3333 7.39576 13.3333 8.50033C13.3333 9.60489 12.4379 10.5003 11.3333 10.5003H4.66665C3.56208 10.5003 2.66665 9.60489 2.66665 8.50033ZM4.66665 7.83366C4.29846 7.83366 3.99998 8.13214 3.99998 8.50033C3.99998 8.86852 4.29846 9.16699 4.66665 9.16699H7.99998V7.83366H4.66665Z" fill="black"/>
</svg>
