<svg width="16" height="16" viewBox="0 0 16 16" fill="none" xmlns="http://www.w3.org/2000/svg">
<path d="M5.99992 10.667V10.0003M7.99992 10.667V10.0003M9.99992 10.667V10.0003M4.55659 2.66699C4.22459 2.67677 3.93636 2.73055 3.69192 2.82833C3.46209 2.91515 3.26324 3.0683 3.12059 3.26833C2.99392 3.46299 2.93059 3.72166 2.93059 4.04433V6.15366C2.93059 6.65144 2.79859 7.05188 2.53459 7.35499C2.27103 7.64833 1.87059 7.84388 1.33325 7.94166V8.02899C1.87992 8.12677 2.28036 8.32699 2.53459 8.62966C2.79859 8.92299 2.93059 9.31855 2.93059 9.81633V11.9703C2.93059 12.2832 2.99392 12.5372 3.12059 12.7323C3.2477 12.9372 3.43325 13.0839 3.67725 13.1723C3.9217 13.2697 4.21503 13.3232 4.55725 13.333M11.4426 2.66699C11.7746 2.67677 12.0628 2.73055 12.3073 2.82833C12.5517 2.92566 12.7421 3.07233 12.8786 3.26833C13.0053 3.46299 13.0686 3.72166 13.0686 4.04433V6.15366C13.0686 6.65144 13.2006 7.05188 13.4646 7.35499C13.7281 7.64833 14.1286 7.84388 14.6659 7.94166V8.02899C14.1193 8.12677 13.7188 8.32699 13.4646 8.62966C13.2006 8.92299 13.0686 9.31855 13.0686 9.81633V11.9703C13.0686 12.2832 13.0053 12.5372 12.8786 12.7323C12.7515 12.9372 12.5659 13.0839 12.3219 13.1723C12.0775 13.2697 11.7841 13.3232 11.4419 13.333" stroke="black" stroke-opacity="0.85" stroke-linecap="round" stroke-linejoin="round"/>
</svg>
