<svg width="16" height="16" viewBox="0 0 16 16" fill="none" xmlns="http://www.w3.org/2000/svg">
<path d="M14.2733 7.72016L8.27334 1.72016C8.02336 1.47222 7.68544 1.33322 7.33334 1.3335H2.66668C2.31306 1.3335 1.97392 1.47397 1.72387 1.72402C1.47382 1.97407 1.33334 2.31321 1.33334 2.66683V7.3335C1.3332 7.50944 1.36789 7.68367 1.4354 7.84614C1.5029 8.00862 1.6019 8.15613 1.72668 8.28016L7.72668 14.2802C7.97667 14.5281 8.31458 14.6671 8.66668 14.6668C9.01973 14.6653 9.35778 14.5239 9.60668 14.2735L14.2733 9.60683C14.5237 9.35793 14.6652 9.01988 14.6667 8.66683C14.6668 8.49089 14.6321 8.31666 14.5646 8.15419C14.4971 7.99171 14.3981 7.8442 14.2733 7.72016ZM8.66668 13.3335L2.66668 7.3335V2.66683H7.33334L13.3333 8.66683M4.33334 3.3335C4.53113 3.3335 4.72447 3.39215 4.88891 3.50203C5.05336 3.61191 5.18154 3.76809 5.25722 3.95081C5.33291 4.13354 5.35271 4.33461 5.31413 4.52859C5.27554 4.72257 5.1803 4.90075 5.04045 5.0406C4.9006 5.18046 4.72242 5.2757 4.52843 5.31428C4.33445 5.35287 4.13339 5.33306 3.95066 5.25738C3.76793 5.18169 3.61176 5.05352 3.50187 4.88907C3.39199 4.72462 3.33334 4.53128 3.33334 4.3335C3.33334 4.06828 3.4387 3.81393 3.62624 3.62639C3.81377 3.43885 4.06813 3.3335 4.33334 3.3335Z" fill="black" fill-opacity="0.65"/>
</svg>
