<svg width="14" height="14" viewBox="0 0 14 14" fill="none" xmlns="http://www.w3.org/2000/svg">
<path d="M10.8595 11.6665H11.1454C11.8161 11.6665 12.3497 11.3609 12.8287 10.9336C14.0456 9.84802 11.185 8.74984 10.2084 8.74984M9.04175 2.95662C9.17422 2.93035 9.31177 2.9165 9.45288 2.9165C10.5145 2.9165 11.3751 3.70001 11.3751 4.6665C11.3751 5.633 10.5145 6.4165 9.45288 6.4165C9.31177 6.4165 9.17422 6.40268 9.04175 6.37637" stroke="#141B34" stroke-linecap="round"/>
<path d="M2.6141 9.3982C1.92637 9.76675 0.123164 10.5193 1.22143 11.461C1.75793 11.921 2.35545 12.25 3.10667 12.25H7.39334C8.14456 12.25 8.74207 11.921 9.27856 11.461C10.3769 10.5193 8.57366 9.76675 7.88591 9.3982C6.27317 8.53393 4.22683 8.53393 2.6141 9.3982Z" stroke="#141B34"/>
<path d="M7.58342 4.37484C7.58342 5.6635 6.53872 6.70817 5.25008 6.70817C3.96142 6.70817 2.91675 5.6635 2.91675 4.37484C2.91675 3.08617 3.96142 2.0415 5.25008 2.0415C6.53872 2.0415 7.58342 3.08617 7.58342 4.37484Z" stroke="#141B34"/>
</svg>
