<svg width="24" height="24" viewBox="0 0 24 24" fill="none" xmlns="http://www.w3.org/2000/svg">
<path fill-rule="evenodd" clip-rule="evenodd" d="M10.3859 8.35701C10.2721 8.2887 10.1422 8.25181 10.0095 8.25011C9.87677 8.24842 9.74598 8.28197 9.63047 8.34736C9.51496 8.41274 9.41887 8.5076 9.35201 8.62226C9.28515 8.73693 9.24992 8.86728 9.24991 9.00001V15C9.24992 15.1327 9.28515 15.2631 9.35201 15.3778C9.41887 15.4924 9.51496 15.5873 9.63047 15.6527C9.74598 15.718 9.87677 15.7516 10.0095 15.7499C10.1422 15.7482 10.2721 15.7113 10.3859 15.643L15.3859 12.643C15.4969 12.5764 15.5888 12.4821 15.6525 12.3694C15.7163 12.2568 15.7498 12.1295 15.7498 12C15.7498 11.8705 15.7163 11.7433 15.6525 11.6306C15.5888 11.5179 15.4969 11.4237 15.3859 11.357L10.3859 8.35701ZM13.5419 12L10.7499 13.675V10.325L13.5419 12Z" fill="black"/>
<path fill-rule="evenodd" clip-rule="evenodd" d="M17.0299 4.64101C13.6817 4.3791 10.3181 4.3791 6.96991 4.64101L4.72891 4.81701C4.06674 4.86863 3.44089 5.14034 2.95104 5.58887C2.4612 6.0374 2.13553 6.63694 2.02591 7.29201C1.50569 10.4091 1.50569 13.5909 2.02591 16.708C2.13553 17.3631 2.4612 17.9626 2.95104 18.4112C3.44089 18.8597 4.06674 19.1314 4.72891 19.183L6.96891 19.359C10.3179 19.621 13.6819 19.621 17.0309 19.359L19.2709 19.183C19.9331 19.1314 20.5589 18.8597 21.0488 18.4112C21.5386 17.9626 21.8643 17.3631 21.9739 16.708C22.4939 13.591 22.4939 10.409 21.9739 7.29201C21.8643 6.63694 21.5386 6.0374 21.0488 5.58887C20.5589 5.14034 19.9331 4.86863 19.2709 4.81701L17.0299 4.64101ZM7.08691 6.13701C10.3579 5.88109 13.6439 5.88109 16.9149 6.13701L19.1549 6.31201C19.8309 6.36501 20.3839 6.87201 20.4949 7.54001C20.9895 10.4928 20.9895 13.5072 20.4949 16.46C20.4407 16.7849 20.2794 17.0824 20.0365 17.3049C19.7937 17.5275 19.4833 17.6623 19.1549 17.688L16.9149 17.863C13.6439 18.1189 10.3579 18.1189 7.08691 17.863L4.84691 17.688C4.5185 17.6623 4.20814 17.5275 3.96529 17.3049C3.72243 17.0824 3.56107 16.7849 3.50691 16.46C3.01236 13.5072 3.01236 10.4928 3.50691 7.54001C3.56107 7.21509 3.72243 6.91764 3.96529 6.69509C4.20814 6.47253 4.5185 6.33768 4.84691 6.31201L7.08691 6.13701Z" fill="black"/>
</svg>
